<?xml version="1.0" encoding="UTF-8"?>
<!-- Created with Inkscape (http://www.inkscape.org/) -->
<svg width="115.85mm" height="83.942mm" version="1.1" viewBox="0 0 115.85 83.942" xmlns="http://www.w3.org/2000/svg">
 <g transform="translate(-50.535 -88.81)">
  <path d="m63.048 95.03c-10.706 40.049 5.8158 54.721 25.774 53.531l29.66-1.3878c-36.983-18.439-56.254-20.752-55.434-52.144z" fill="#806600"/>
  <path d="m105.83 120.11c-63.957 40.049-63.908 53.763-42.368 52.573l31.505-1.3878c-12.466-18.439-31.696-19.793 10.863-51.185z" fill="#162d50"/>
  <path d="m75.457 127.97v-39.158h8.4667v39.158zm23.601 0.52916q-4.6567 0-8.0963-1.8521-3.4396-1.905-5.3446-5.1329-1.905-3.2808-1.905-7.4612 0-3.2279 1.0583-5.9267 1.0583-2.6988 2.9633-4.6567 1.905-2.0108 4.4979-3.0692 2.6458-1.1113 5.7679-1.1113 2.9633 0 5.3975 1.0583 2.4871 1.0583 4.2863 2.9633 1.7992 1.905 2.7517 4.4979 0.9525 2.5929 0.84666 5.6621l-0.0529 2.2754h-22.384l-1.2171-4.7625h16.722l-0.89959 1.0054v-1.0583q-0.10583-1.3229-0.84667-2.3283-0.68791-1.0583-1.8521-1.6404-1.1642-0.58209-2.6458-0.58209-2.0638 0-3.5454 0.84667-1.4288 0.79375-2.1696 2.3812-0.74083 1.5346-0.74083 3.81 0 2.3283 0.9525 4.0746 1.0054 1.6933 2.8575 2.6458 1.905 0.9525 4.4979 0.9525 1.7992 0 3.175-0.52917 1.4288-0.52917 3.0692-1.7992l3.9688 5.6092q-1.6404 1.4288-3.4925 2.3283-1.8521 0.89958-3.81 1.3229-1.905 0.47625-3.81 0.47625zm25.717 0q-4.6567 0-8.0962-1.8521-3.4396-1.905-5.3446-5.1329-1.905-3.2808-1.905-7.4612 0-3.2279 1.0583-5.9267 1.0583-2.6988 2.9633-4.6567 1.905-2.0108 4.4979-3.0692 2.6458-1.1113 5.7679-1.1113 2.9633 0 5.3975 1.0583 2.4871 1.0583 4.2862 2.9633 1.7992 1.905 2.7517 4.4979 0.9525 2.5929 0.84667 5.6621l-0.0529 2.2754h-22.384l-1.2171-4.7625h16.722l-0.89958 1.0054v-1.0583q-0.10584-1.3229-0.84667-2.3283-0.68792-1.0583-1.8521-1.6404-1.1642-0.58209-2.6458-0.58209-2.0638 0-3.5454 0.84667-1.4288 0.79375-2.1696 2.3812-0.74084 1.5346-0.74084 3.81 0 2.3283 0.9525 4.0746 1.0054 1.6933 2.8575 2.6458 1.905 0.9525 4.4979 0.9525 1.7992 0 3.175-0.52917 1.4288-0.52917 3.0692-1.7992l3.9688 5.6092q-1.6404 1.4288-3.4925 2.3283-1.8521 0.89958-3.81 1.3229-1.905 0.47625-3.81 0.47625zm12.33 11.113v-39.74h8.0433l0.3175 6.2971-1.5875-0.47625q0.37042-1.7462 1.7992-3.175 1.4288-1.4288 3.5983-2.2754 2.2225-0.89959 4.6567-0.89959 3.5983 0 6.4029 1.905 2.8046 1.8521 4.3921 5.1329 1.6404 3.2279 1.6404 7.5142 0 4.2333-1.6404 7.5142-1.5875 3.2808-4.445 5.1858-2.8046 1.8521-6.4558 1.8521-2.3812 0-4.5508-0.89959-2.1696-0.89958-3.6512-2.4342-1.4817-1.5346-1.9579-3.3338l1.9579-0.74083v18.574zm14.658-18.309q1.905 0 3.3338-0.89958 1.4288-0.9525 2.2225-2.5929t0.79375-3.9158q0-2.2225-0.79375-3.8629-0.79375-1.6933-2.2225-2.5929-1.3758-0.9525-3.3338-0.9525t-3.3867 0.89958q-1.4288 0.89959-2.2225 2.5929t-0.79375 3.9158q0 2.2754 0.79375 3.9158t2.2225 2.5929q1.4288 0.89958 3.3867 0.89958z" fill="#806600" aria-label="leep"/>
  <path d="m103.99 170.41q-3.5291 0.33981-6.4983-1.2349-2.9216-1.6325-4.8689-4.741-1.9524-3.1612-2.3531-7.3224-0.41082-4.2665 0.90759-7.6895 1.3184-3.423 3.9852-5.5404 2.6618-2.1701 6.2962-2.5201 2.0016-0.19273 3.6902 0.22945 1.7413 0.4171 3.1069 1.3488 1.3605 0.87906 2.3878 2.1623 1.0222 1.2306 1.5907 2.7176l-1.7585-0.0433-0.63905-6.6368 8.375-0.80642 2.6932 27.969-8.533 0.82164-0.6492-6.7422 1.8912-0.23526q-0.27937 1.5154-1.1007 2.9235t-2.0945 2.5408q-1.2731 1.1326-2.9029 1.8744-1.6298 0.7417-3.526 0.92429zm1.6329-7.334q1.9489-0.18766 3.2848-1.22t1.9688-2.7413q0.6278-1.7616 0.40971-4.0266-0.21809-2.2649-1.1654-3.8217-0.9524-1.6095-2.4608-2.368-1.5135-0.81117-3.4624-0.62352-1.8962 0.18259-3.2271 1.2676-1.2833 1.0273-1.9111 2.7889-0.63287 1.709-0.41478 3.9739 0.21809 2.2649 1.1705 3.8744 0.94732 1.5568 2.403 2.3204 1.5084 0.75851 3.4046 0.57592zm17.578 7.854-2.6932-27.969 8.0063-0.77092 1.2461 9.0769-1.7476-1.5861q0.41398-2.3258 1.6637-4.2536 1.3024-1.9329 3.1499-3.174 1.8475-1.2411 4.0597-1.4541 0.94812-0.0913 1.7534-9e-3 0.85798 0.0769 1.563 0.22163l-1.4199 9.5463q-0.6149-0.31292-1.636-0.42725-0.97347-0.17207-2.0269-0.0706-1.1588 0.11158-2.119 0.62933-0.96528 0.46508-1.579 1.2684-0.61374 0.80336-0.93876 1.8447-0.27235 1.0363-0.15062 2.3004l1.3491 14.011zm30.998-0.75645q-4.6352 0.44633-8.2365-1.0676-3.6063-1.5666-5.812-4.597-2.2107-3.0832-2.6114-7.2443-0.30938-3.2131 0.48542-6.0008 0.7948-2.7878 2.5034-4.9193 1.7035-2.1842 4.183-3.4861 2.5272-1.3597 5.6349-1.659 2.9497-0.28402 5.4741 0.53613 2.5771 0.81509 4.5505 2.5389 1.9735 1.7238 3.1701 4.2135t1.3855 5.5549l0.16541 2.27-22.281 2.1454-1.668-4.6239 16.645-1.6027-0.79908 1.087-0.10144-1.0535q-0.23214-1.3067-1.0659-2.2365-0.78618-0.98753-2.0008-1.4554t-2.6894-0.32581q-2.0542 0.1978-3.4479 1.1826-1.3461 0.92704-1.9314 2.5782-0.59034 1.5985-0.37225 3.8635 0.22317 2.3176 1.3386 3.9645 1.1631 1.5892 3.0979 2.3598 1.9875 0.76553 4.5685 0.51701 1.7909-0.17244 3.1097-0.83104 1.3715-0.66367 2.8826-2.085l4.4881 5.203q-1.4959 1.5794-3.2533 2.6524-1.7573 1.073-3.6657 1.682-1.8506 0.65665-3.7468 0.83923z" fill="#162d50" aria-label="are"/>
 </g>
</svg>
